# xmcd CD database file
#
# Track frame offsets:
#	150
#	24025
#	45217
#	68175
#	87515
#	112627
#	151695
#
# Disc length: 2345 seconds
#
# Revision: 3
# Processed by: cddbd v1.5.1PL0 Copyright (c) Steve Scherf et al.
# Submitted via: CDex 1.40Beta9
#
DISCID=3c092707
DTITLE=Buddy Guy - Hold that Plane! (The Complete Vanguard Collection) Disc 3
DYEAR=1972
DGENRE=Blues
TTITLE0=Watermelon Man
TTITLE1=Hold that Plane
TTITLE2=I'm Ready
TTITLE3=My Time After Awhile
TTITLE4=You Don't Love Me
TTITLE5=Come See About Me
TTITLE6=Hello San Francisco
EXTD=1972, Vanguard Records YEAR: 1972
EXTT0=by Herbie Hancock
EXTT1=by Buddy Guy
EXTT2=by Willie Dixon
EXTT3=by Robert Geddins
EXTT4=by Ellis McDaniel
EXTT5=by Buddy Guy and Philip Guy
EXTT6=by Robert Geddins
PLAYORDER=
